<svg width="19" height="25" viewBox="0 0 19 25" fill="none" xmlns="http://www.w3.org/2000/svg">
<path d="M7.51028 22.743C8.14994 23.2708 8.81706 23.7532 9.5 24.224C10.1844 23.7595 10.8483 23.2653 11.4897 22.743C12.559 21.8651 13.5653 20.9131 14.5012 19.8941C16.6588 17.5349 19 14.1149 19 10.2759C19 9.02832 18.7543 7.79298 18.2769 6.64039C17.7994 5.48779 17.0997 4.44052 16.2175 3.55836C15.3354 2.67621 14.2881 1.97644 13.1355 1.49902C11.9829 1.0216 10.7476 0.775879 9.5 0.775879C8.25244 0.775879 7.0171 1.0216 5.86451 1.49902C4.71191 1.97644 3.66464 2.67621 2.78249 3.55836C1.90033 4.44052 1.20056 5.48779 0.723144 6.64039C0.245725 7.79298 -1.85901e-08 9.02832 0 10.2759C0 14.1149 2.34122 17.5339 4.49878 19.8941C5.43465 20.9134 6.44096 21.8647 7.51028 22.743ZM9.5 13.7064C8.59016 13.7064 7.71759 13.345 7.07423 12.7016C6.43088 12.0583 6.06944 11.1857 6.06944 10.2759C6.06944 9.36604 6.43088 8.49346 7.07423 7.85011C7.71759 7.20676 8.59016 6.84532 9.5 6.84532C10.4098 6.84532 11.2824 7.20676 11.9258 7.85011C12.5691 8.49346 12.9306 9.36604 12.9306 10.2759C12.9306 11.1857 12.5691 12.0583 11.9258 12.7016C11.2824 13.345 10.4098 13.7064 9.5 13.7064Z" fill="#A372A1"/>
</svg>
