<svg width="24" height="25" viewBox="0 0 24 25" fill="none" xmlns="http://www.w3.org/2000/svg">
<path d="M4.82667 10.8867C6.74667 14.66 9.84 17.74 13.6133 19.6733L16.5467 16.74C16.9067 16.38 17.44 16.26 17.9067 16.42C19.4 16.9133 21.0133 17.18 22.6667 17.18C23.4 17.18 24 17.78 24 18.5133V23.1667C24 23.9 23.4 24.5 22.6667 24.5C10.1467 24.5 0 14.3533 0 1.83333C0 1.1 0.6 0.5 1.33333 0.5H6C6.73333 0.5 7.33333 1.1 7.33333 1.83333C7.33333 3.5 7.6 5.1 8.09333 6.59333C8.24 7.06 8.13333 7.58 7.76 7.95333L4.82667 10.8867Z" fill="#A372A1"/>
</svg>
