<svg width="29" height="34" viewBox="0 0 29 34" fill="none" xmlns="http://www.w3.org/2000/svg">
<path d="M6.84349 4.40881L9.67886 4.85754C11.1868 4.88095 12.679 4.54743 14.0335 3.88421L14.185 3.81002L14.5256 3.58412C16.0105 2.59936 17.5769 1.74339 19.2076 1.02557C21.8378 0.124314 23.9679 1.91085 25.2991 3.80096C26.2504 5.15163 26.8402 6.25685 27.2692 7.85219C28.1388 11.0859 28.5115 15.1394 28.3458 18.484C28.1674 22.0859 27.6028 26.5947 26.3502 28.5586C26.2871 28.6577 26.2232 28.7527 26.1588 28.844C24.1586 31.678 20.6616 28.5684 19.68 25.2414L19.6274 25.0636C19.416 24.3534 19.1101 23.6765 18.7443 23.0322C18.3412 22.3221 17.8866 21.5659 17.1069 21.3232C16.5775 21.1583 15.9049 21.1489 15.1618 21.5482C13.3938 22.4981 14.4628 28.1183 14.4043 28.7606C14.3458 29.403 14.8892 33.5284 11.701 33.2216C8.51267 32.9148 6.33694 27.6418 4.99637 26.2168C3.65581 24.7918 1.0662 17.0998 0.394773 13.5731C-0.276653 10.0463 0.702285 7.87248 1.35122 6.19458C1.87037 4.85226 3.99011 4.39343 4.98509 4.33181L6.84349 4.40881Z" fill="#E6CDE2" fill-opacity="0.6"/>
</svg>
