<svg width="24" height="24" viewBox="0 0 24 24" fill="none" xmlns="http://www.w3.org/2000/svg">
<path d="M12 0C5.37288 0 0 5.37288 0 12C0 18.6167 5.38385 24 12 24C18.6265 24 24 18.6265 24 12C24 5.38327 18.6167 0 12 0ZM18.2308 13.8462H11.3077C11.2465 13.8462 11.1878 13.8218 11.1445 13.7786C11.1012 13.7353 11.0769 13.6766 11.0769 13.6154V3.92308C11.0769 3.86187 11.1012 3.80318 11.1445 3.7599C11.1878 3.71662 11.2465 3.69231 11.3077 3.69231H12.6923C12.7535 3.69231 12.8122 3.71662 12.8555 3.7599C12.8988 3.80318 12.9231 3.86187 12.9231 3.92308V12H18.2308C18.292 12 18.3507 12.0243 18.3939 12.0676C18.4372 12.1109 18.4615 12.1696 18.4615 12.2308V13.6154C18.4615 13.6766 18.4372 13.7353 18.3939 13.7786C18.3507 13.8218 18.292 13.8462 18.2308 13.8462Z" fill="#A372A1"/>
</svg>
